<mxfile host="app.diagrams.net" modified="2023-08-15T00:42:13.047Z" agent="Mozilla/5.0 (Windows NT 10.0; Win64; x64) AppleWebKit/537.36 (KHTML, like Gecko) Chrome/115.0.0.0 Safari/537.36" etag="2u-jJnJji7cpyyFXSFTo" version="21.6.8" type="github">
  <diagram name="Page-1" id="e7tFuQl-No_CmrQudXCx">
    <mxGraphModel dx="1050" dy="574" grid="1" gridSize="10" guides="1" tooltips="1" connect="1" arrows="1" fold="1" page="1" pageScale="1" pageWidth="850" pageHeight="1100" math="0" shadow="0">
      <root>
        <mxCell id="0" />
        <mxCell id="1" parent="0" />
        <mxCell id="-r_XQkv1S9U4UWUc1cpl-4" style="edgeStyle=orthogonalEdgeStyle;rounded=0;orthogonalLoop=1;jettySize=auto;html=1;exitX=0.5;exitY=0.5;exitDx=0;exitDy=0;exitPerimeter=0;" edge="1" parent="1" source="-r_XQkv1S9U4UWUc1cpl-1" target="-r_XQkv1S9U4UWUc1cpl-2">
          <mxGeometry relative="1" as="geometry" />
        </mxCell>
        <mxCell id="-r_XQkv1S9U4UWUc1cpl-1" value="Customer" style="shape=umlActor;verticalLabelPosition=bottom;verticalAlign=top;html=1;outlineConnect=0;" vertex="1" parent="1">
          <mxGeometry x="15" y="110" width="30" height="60" as="geometry" />
        </mxCell>
        <mxCell id="-r_XQkv1S9U4UWUc1cpl-6" value="" style="endArrow=none;dashed=1;html=1;rounded=0;" edge="1" parent="1">
          <mxGeometry width="50" height="50" relative="1" as="geometry">
            <mxPoint x="190" y="550" as="sourcePoint" />
            <mxPoint x="189.5" y="70" as="targetPoint" />
          </mxGeometry>
        </mxCell>
        <mxCell id="-r_XQkv1S9U4UWUc1cpl-2" value="Initial Page" style="rounded=1;whiteSpace=wrap;html=1;" vertex="1" parent="1">
          <mxGeometry x="130" y="110" width="120" height="60" as="geometry" />
        </mxCell>
        <mxCell id="-r_XQkv1S9U4UWUc1cpl-7" value="Web App" style="text;html=1;align=center;verticalAlign=middle;resizable=0;points=[];autosize=1;strokeColor=none;fillColor=none;" vertex="1" parent="1">
          <mxGeometry x="155" y="28" width="70" height="30" as="geometry" />
        </mxCell>
        <mxCell id="-r_XQkv1S9U4UWUc1cpl-8" style="edgeStyle=orthogonalEdgeStyle;rounded=0;orthogonalLoop=1;jettySize=auto;html=1;exitX=0.5;exitY=0.5;exitDx=0;exitDy=0;exitPerimeter=0;" edge="1" parent="1" target="-r_XQkv1S9U4UWUc1cpl-10">
          <mxGeometry relative="1" as="geometry">
            <mxPoint x="250" y="142" as="sourcePoint" />
          </mxGeometry>
        </mxCell>
        <mxCell id="-r_XQkv1S9U4UWUc1cpl-9" value="" style="endArrow=none;dashed=1;html=1;rounded=0;" edge="1" parent="1">
          <mxGeometry width="50" height="50" relative="1" as="geometry">
            <mxPoint x="715" y="550" as="sourcePoint" />
            <mxPoint x="714.5" y="72" as="targetPoint" />
          </mxGeometry>
        </mxCell>
        <mxCell id="-r_XQkv1S9U4UWUc1cpl-10" value="Authenticate" style="rounded=1;whiteSpace=wrap;html=1;" vertex="1" parent="1">
          <mxGeometry x="655" y="112" width="120" height="60" as="geometry" />
        </mxCell>
        <mxCell id="-r_XQkv1S9U4UWUc1cpl-11" value="Google Auth Server" style="text;html=1;align=center;verticalAlign=middle;resizable=0;points=[];autosize=1;strokeColor=none;fillColor=none;" vertex="1" parent="1">
          <mxGeometry x="650" y="30" width="130" height="30" as="geometry" />
        </mxCell>
        <mxCell id="-r_XQkv1S9U4UWUc1cpl-12" value="Component For Handling Authentication" style="rounded=1;whiteSpace=wrap;html=1;" vertex="1" parent="1">
          <mxGeometry x="130" y="280" width="120" height="60" as="geometry" />
        </mxCell>
        <mxCell id="-r_XQkv1S9U4UWUc1cpl-13" value="" style="endArrow=classic;html=1;rounded=0;entryX=0.5;entryY=0;entryDx=0;entryDy=0;exitX=0.5;exitY=1;exitDx=0;exitDy=0;" edge="1" parent="1" source="-r_XQkv1S9U4UWUc1cpl-10" target="-r_XQkv1S9U4UWUc1cpl-12">
          <mxGeometry width="50" height="50" relative="1" as="geometry">
            <mxPoint x="655" y="172" as="sourcePoint" />
            <mxPoint x="260" y="320" as="targetPoint" />
          </mxGeometry>
        </mxCell>
        <mxCell id="-r_XQkv1S9U4UWUc1cpl-14" value="redirects to &lt;br&gt;google login page" style="text;html=1;align=center;verticalAlign=middle;resizable=0;points=[];autosize=1;strokeColor=none;fillColor=none;fontSize=11;" vertex="1" parent="1">
          <mxGeometry x="440" y="105" width="110" height="40" as="geometry" />
        </mxCell>
        <mxCell id="-r_XQkv1S9U4UWUc1cpl-15" value="redirects &lt;br&gt;with google jwt" style="text;html=1;align=center;verticalAlign=middle;resizable=0;points=[];autosize=1;strokeColor=none;fillColor=none;rotation=-15;" vertex="1" parent="1">
          <mxGeometry x="340" y="200" width="100" height="40" as="geometry" />
        </mxCell>
        <mxCell id="-r_XQkv1S9U4UWUc1cpl-16" value="" style="endArrow=none;dashed=1;html=1;rounded=0;" edge="1" parent="1">
          <mxGeometry width="50" height="50" relative="1" as="geometry">
            <mxPoint x="440" y="550" as="sourcePoint" />
            <mxPoint x="439.5" y="72" as="targetPoint" />
          </mxGeometry>
        </mxCell>
        <mxCell id="-r_XQkv1S9U4UWUc1cpl-18" value="Backend App" style="text;html=1;align=center;verticalAlign=middle;resizable=0;points=[];autosize=1;strokeColor=none;fillColor=none;" vertex="1" parent="1">
          <mxGeometry x="395" y="30" width="90" height="30" as="geometry" />
        </mxCell>
        <mxCell id="-r_XQkv1S9U4UWUc1cpl-19" value="Endpoint for oauth login" style="rounded=1;whiteSpace=wrap;html=1;" vertex="1" parent="1">
          <mxGeometry x="380" y="280" width="120" height="60" as="geometry" />
        </mxCell>
        <mxCell id="-r_XQkv1S9U4UWUc1cpl-20" value="" style="endArrow=classic;html=1;rounded=0;exitX=1;exitY=0.25;exitDx=0;exitDy=0;entryX=0;entryY=0.25;entryDx=0;entryDy=0;" edge="1" parent="1" source="-r_XQkv1S9U4UWUc1cpl-12" target="-r_XQkv1S9U4UWUc1cpl-19">
          <mxGeometry width="50" height="50" relative="1" as="geometry">
            <mxPoint x="400" y="380" as="sourcePoint" />
            <mxPoint x="450" y="330" as="targetPoint" />
          </mxGeometry>
        </mxCell>
        <mxCell id="-r_XQkv1S9U4UWUc1cpl-28" value="" style="endArrow=classic;startArrow=classic;html=1;rounded=0;entryX=1;entryY=0.5;entryDx=0;entryDy=0;exitX=0;exitY=0.5;exitDx=0;exitDy=0;" edge="1" parent="1" source="-r_XQkv1S9U4UWUc1cpl-29" target="-r_XQkv1S9U4UWUc1cpl-19">
          <mxGeometry width="50" height="50" relative="1" as="geometry">
            <mxPoint x="690" y="400" as="sourcePoint" />
            <mxPoint x="450" y="330" as="targetPoint" />
          </mxGeometry>
        </mxCell>
        <mxCell id="-r_XQkv1S9U4UWUc1cpl-29" value="Google Jwk (Public Keys)" style="rounded=1;whiteSpace=wrap;html=1;" vertex="1" parent="1">
          <mxGeometry x="655" y="280" width="120" height="60" as="geometry" />
        </mxCell>
        <mxCell id="-r_XQkv1S9U4UWUc1cpl-21" value="sends jwt &lt;br&gt;to backend" style="text;html=1;align=center;verticalAlign=middle;resizable=0;points=[];autosize=1;strokeColor=none;fillColor=none;" vertex="1" parent="1">
          <mxGeometry x="280" y="260" width="80" height="40" as="geometry" />
        </mxCell>
        <mxCell id="-r_XQkv1S9U4UWUc1cpl-30" value="validate google jwt" style="text;html=1;align=center;verticalAlign=middle;resizable=0;points=[];autosize=1;strokeColor=none;fillColor=none;rotation=0;" vertex="1" parent="1">
          <mxGeometry x="520" y="278" width="120" height="30" as="geometry" />
        </mxCell>
        <mxCell id="-r_XQkv1S9U4UWUc1cpl-33" value="Initial Page" style="rounded=1;whiteSpace=wrap;html=1;" vertex="1" parent="1">
          <mxGeometry x="130" y="450" width="120" height="60" as="geometry" />
        </mxCell>
        <mxCell id="-r_XQkv1S9U4UWUc1cpl-35" value="" style="endArrow=classic;html=1;rounded=0;entryX=1;entryY=0.75;entryDx=0;entryDy=0;exitX=0;exitY=0.75;exitDx=0;exitDy=0;" edge="1" parent="1" source="-r_XQkv1S9U4UWUc1cpl-19" target="-r_XQkv1S9U4UWUc1cpl-12">
          <mxGeometry width="50" height="50" relative="1" as="geometry">
            <mxPoint x="410" y="400" as="sourcePoint" />
            <mxPoint x="460" y="350" as="targetPoint" />
          </mxGeometry>
        </mxCell>
        <mxCell id="-r_XQkv1S9U4UWUc1cpl-36" value="returns custom jwt&lt;br&gt;&amp;nbsp;with authorities" style="text;html=1;align=center;verticalAlign=middle;resizable=0;points=[];autosize=1;strokeColor=none;fillColor=none;rotation=0;" vertex="1" parent="1">
          <mxGeometry x="260" y="330" width="120" height="40" as="geometry" />
        </mxCell>
        <mxCell id="-r_XQkv1S9U4UWUc1cpl-37" value="" style="curved=1;endArrow=classic;html=1;rounded=0;entryX=0;entryY=0;entryDx=0;entryDy=0;exitX=0;exitY=1;exitDx=0;exitDy=0;" edge="1" parent="1" source="-r_XQkv1S9U4UWUc1cpl-12" target="-r_XQkv1S9U4UWUc1cpl-33">
          <mxGeometry width="50" height="50" relative="1" as="geometry">
            <mxPoint x="70" y="350" as="sourcePoint" />
            <mxPoint x="120" y="300" as="targetPoint" />
            <Array as="points">
              <mxPoint x="120" y="350" />
              <mxPoint x="90" y="410" />
            </Array>
          </mxGeometry>
        </mxCell>
        <mxCell id="-r_XQkv1S9U4UWUc1cpl-38" value="redirects to &lt;br&gt;initialpage" style="text;html=1;align=center;verticalAlign=middle;resizable=0;points=[];autosize=1;strokeColor=none;fillColor=none;fontSize=11;" vertex="1" parent="1">
          <mxGeometry x="15" y="370" width="80" height="40" as="geometry" />
        </mxCell>
        <mxCell id="-r_XQkv1S9U4UWUc1cpl-39" value="" style="curved=1;endArrow=classic;html=1;rounded=0;exitX=0.25;exitY=0;exitDx=0;exitDy=0;entryX=0;entryY=0.5;entryDx=0;entryDy=0;" edge="1" parent="1" source="-r_XQkv1S9U4UWUc1cpl-12" target="-r_XQkv1S9U4UWUc1cpl-12">
          <mxGeometry width="50" height="50" relative="1" as="geometry">
            <mxPoint x="110" y="250" as="sourcePoint" />
            <mxPoint x="160" y="200" as="targetPoint" />
            <Array as="points">
              <mxPoint x="160" y="250" />
              <mxPoint x="90" y="280" />
            </Array>
          </mxGeometry>
        </mxCell>
        <mxCell id="-r_XQkv1S9U4UWUc1cpl-40" value="saves the custom&lt;br&gt;jwt in local storage" style="text;html=1;align=center;verticalAlign=middle;resizable=0;points=[];autosize=1;strokeColor=none;fillColor=none;" vertex="1" parent="1">
          <mxGeometry y="308" width="120" height="40" as="geometry" />
        </mxCell>
        <mxCell id="-r_XQkv1S9U4UWUc1cpl-41" style="edgeStyle=orthogonalEdgeStyle;rounded=0;orthogonalLoop=1;jettySize=auto;html=1;exitX=0.5;exitY=0.5;exitDx=0;exitDy=0;exitPerimeter=0;" edge="1" parent="1" source="-r_XQkv1S9U4UWUc1cpl-42" target="-r_XQkv1S9U4UWUc1cpl-44">
          <mxGeometry relative="1" as="geometry" />
        </mxCell>
        <mxCell id="-r_XQkv1S9U4UWUc1cpl-42" value="Customer" style="shape=umlActor;verticalLabelPosition=bottom;verticalAlign=top;html=1;outlineConnect=0;" vertex="1" parent="1">
          <mxGeometry x="30" y="652" width="30" height="60" as="geometry" />
        </mxCell>
        <mxCell id="-r_XQkv1S9U4UWUc1cpl-43" value="" style="endArrow=none;dashed=1;html=1;rounded=0;" edge="1" parent="1">
          <mxGeometry width="50" height="50" relative="1" as="geometry">
            <mxPoint x="190" y="1092" as="sourcePoint" />
            <mxPoint x="189.5" y="612" as="targetPoint" />
          </mxGeometry>
        </mxCell>
        <mxCell id="-r_XQkv1S9U4UWUc1cpl-44" value="Initial Page" style="rounded=1;whiteSpace=wrap;html=1;" vertex="1" parent="1">
          <mxGeometry x="130" y="652" width="120" height="60" as="geometry" />
        </mxCell>
        <mxCell id="-r_XQkv1S9U4UWUc1cpl-45" value="Web App" style="text;html=1;align=center;verticalAlign=middle;resizable=0;points=[];autosize=1;strokeColor=none;fillColor=none;" vertex="1" parent="1">
          <mxGeometry x="155" y="570" width="70" height="30" as="geometry" />
        </mxCell>
        <mxCell id="-r_XQkv1S9U4UWUc1cpl-46" style="edgeStyle=orthogonalEdgeStyle;rounded=0;orthogonalLoop=1;jettySize=auto;html=1;exitX=0.5;exitY=0.5;exitDx=0;exitDy=0;exitPerimeter=0;" edge="1" parent="1" target="-r_XQkv1S9U4UWUc1cpl-48">
          <mxGeometry relative="1" as="geometry">
            <mxPoint x="250" y="684" as="sourcePoint" />
          </mxGeometry>
        </mxCell>
        <mxCell id="-r_XQkv1S9U4UWUc1cpl-47" value="" style="endArrow=none;dashed=1;html=1;rounded=0;" edge="1" parent="1">
          <mxGeometry width="50" height="50" relative="1" as="geometry">
            <mxPoint x="715" y="1092" as="sourcePoint" />
            <mxPoint x="714.5" y="614" as="targetPoint" />
          </mxGeometry>
        </mxCell>
        <mxCell id="-r_XQkv1S9U4UWUc1cpl-48" value="Authenticate" style="rounded=1;whiteSpace=wrap;html=1;" vertex="1" parent="1">
          <mxGeometry x="655" y="654" width="120" height="60" as="geometry" />
        </mxCell>
        <mxCell id="-r_XQkv1S9U4UWUc1cpl-49" value="Facebook Auth Server" style="text;html=1;align=center;verticalAlign=middle;resizable=0;points=[];autosize=1;strokeColor=none;fillColor=none;" vertex="1" parent="1">
          <mxGeometry x="645" y="572" width="140" height="30" as="geometry" />
        </mxCell>
        <mxCell id="-r_XQkv1S9U4UWUc1cpl-50" value="Component For Handling Authentication" style="rounded=1;whiteSpace=wrap;html=1;" vertex="1" parent="1">
          <mxGeometry x="130" y="822" width="120" height="60" as="geometry" />
        </mxCell>
        <mxCell id="-r_XQkv1S9U4UWUc1cpl-51" value="" style="endArrow=classic;html=1;rounded=0;entryX=0.5;entryY=0;entryDx=0;entryDy=0;exitX=0.5;exitY=1;exitDx=0;exitDy=0;" edge="1" parent="1" source="-r_XQkv1S9U4UWUc1cpl-48" target="-r_XQkv1S9U4UWUc1cpl-50">
          <mxGeometry width="50" height="50" relative="1" as="geometry">
            <mxPoint x="655" y="714" as="sourcePoint" />
            <mxPoint x="260" y="862" as="targetPoint" />
          </mxGeometry>
        </mxCell>
        <mxCell id="-r_XQkv1S9U4UWUc1cpl-52" value="redirects to &lt;br&gt;facebook login page" style="text;html=1;align=center;verticalAlign=middle;resizable=0;points=[];autosize=1;strokeColor=none;fillColor=none;fontSize=11;" vertex="1" parent="1">
          <mxGeometry x="435" y="647" width="120" height="40" as="geometry" />
        </mxCell>
        <mxCell id="-r_XQkv1S9U4UWUc1cpl-53" value="redirects &lt;br&gt;with facebook token" style="text;html=1;align=center;verticalAlign=middle;resizable=0;points=[];autosize=1;strokeColor=none;fillColor=none;rotation=-15;" vertex="1" parent="1">
          <mxGeometry x="325" y="742" width="130" height="40" as="geometry" />
        </mxCell>
        <mxCell id="-r_XQkv1S9U4UWUc1cpl-54" value="" style="endArrow=none;dashed=1;html=1;rounded=0;" edge="1" parent="1">
          <mxGeometry width="50" height="50" relative="1" as="geometry">
            <mxPoint x="440" y="1092" as="sourcePoint" />
            <mxPoint x="439.5" y="614" as="targetPoint" />
          </mxGeometry>
        </mxCell>
        <mxCell id="-r_XQkv1S9U4UWUc1cpl-55" value="Backend App" style="text;html=1;align=center;verticalAlign=middle;resizable=0;points=[];autosize=1;strokeColor=none;fillColor=none;" vertex="1" parent="1">
          <mxGeometry x="395" y="572" width="90" height="30" as="geometry" />
        </mxCell>
        <mxCell id="-r_XQkv1S9U4UWUc1cpl-56" value="Endpoint for oauth login" style="rounded=1;whiteSpace=wrap;html=1;" vertex="1" parent="1">
          <mxGeometry x="380" y="822" width="120" height="60" as="geometry" />
        </mxCell>
        <mxCell id="-r_XQkv1S9U4UWUc1cpl-57" value="" style="endArrow=classic;html=1;rounded=0;exitX=1;exitY=0.25;exitDx=0;exitDy=0;entryX=0;entryY=0.25;entryDx=0;entryDy=0;" edge="1" parent="1" source="-r_XQkv1S9U4UWUc1cpl-50" target="-r_XQkv1S9U4UWUc1cpl-56">
          <mxGeometry width="50" height="50" relative="1" as="geometry">
            <mxPoint x="400" y="922" as="sourcePoint" />
            <mxPoint x="450" y="872" as="targetPoint" />
          </mxGeometry>
        </mxCell>
        <mxCell id="-r_XQkv1S9U4UWUc1cpl-59" value="Facebook &lt;br&gt;Graph API" style="rounded=1;whiteSpace=wrap;html=1;" vertex="1" parent="1">
          <mxGeometry x="655" y="822" width="120" height="60" as="geometry" />
        </mxCell>
        <mxCell id="-r_XQkv1S9U4UWUc1cpl-60" value="sends token&lt;br&gt;to backend" style="text;html=1;align=center;verticalAlign=middle;resizable=0;points=[];autosize=1;strokeColor=none;fillColor=none;" vertex="1" parent="1">
          <mxGeometry x="275" y="802" width="90" height="40" as="geometry" />
        </mxCell>
        <mxCell id="-r_XQkv1S9U4UWUc1cpl-61" value="request user data&lt;br&gt;(with facebook token)" style="text;html=1;align=center;verticalAlign=middle;resizable=0;points=[];autosize=1;strokeColor=none;fillColor=none;rotation=0;" vertex="1" parent="1">
          <mxGeometry x="510" y="797" width="140" height="40" as="geometry" />
        </mxCell>
        <mxCell id="-r_XQkv1S9U4UWUc1cpl-62" value="Initial page" style="rounded=1;whiteSpace=wrap;html=1;" vertex="1" parent="1">
          <mxGeometry x="130" y="992" width="120" height="60" as="geometry" />
        </mxCell>
        <mxCell id="-r_XQkv1S9U4UWUc1cpl-63" value="" style="endArrow=classic;html=1;rounded=0;entryX=1;entryY=0.75;entryDx=0;entryDy=0;exitX=0;exitY=0.75;exitDx=0;exitDy=0;" edge="1" parent="1" source="-r_XQkv1S9U4UWUc1cpl-56" target="-r_XQkv1S9U4UWUc1cpl-50">
          <mxGeometry width="50" height="50" relative="1" as="geometry">
            <mxPoint x="410" y="942" as="sourcePoint" />
            <mxPoint x="460" y="892" as="targetPoint" />
          </mxGeometry>
        </mxCell>
        <mxCell id="-r_XQkv1S9U4UWUc1cpl-64" value="returns custom jwt&lt;br&gt;&amp;nbsp;with authorities" style="text;html=1;align=center;verticalAlign=middle;resizable=0;points=[];autosize=1;strokeColor=none;fillColor=none;rotation=0;" vertex="1" parent="1">
          <mxGeometry x="260" y="872" width="120" height="40" as="geometry" />
        </mxCell>
        <mxCell id="-r_XQkv1S9U4UWUc1cpl-65" value="" style="curved=1;endArrow=classic;html=1;rounded=0;entryX=0;entryY=0;entryDx=0;entryDy=0;exitX=0;exitY=1;exitDx=0;exitDy=0;" edge="1" parent="1" source="-r_XQkv1S9U4UWUc1cpl-50" target="-r_XQkv1S9U4UWUc1cpl-62">
          <mxGeometry width="50" height="50" relative="1" as="geometry">
            <mxPoint x="70" y="892" as="sourcePoint" />
            <mxPoint x="120" y="842" as="targetPoint" />
            <Array as="points">
              <mxPoint x="120" y="892" />
              <mxPoint x="90" y="952" />
            </Array>
          </mxGeometry>
        </mxCell>
        <mxCell id="-r_XQkv1S9U4UWUc1cpl-66" value="redirects to &lt;br&gt;initial page" style="text;html=1;align=center;verticalAlign=middle;resizable=0;points=[];autosize=1;strokeColor=none;fillColor=none;fontSize=11;" vertex="1" parent="1">
          <mxGeometry x="15" y="912" width="80" height="40" as="geometry" />
        </mxCell>
        <mxCell id="-r_XQkv1S9U4UWUc1cpl-67" value="" style="curved=1;endArrow=classic;html=1;rounded=0;exitX=0.25;exitY=0;exitDx=0;exitDy=0;entryX=0;entryY=0.5;entryDx=0;entryDy=0;" edge="1" parent="1" source="-r_XQkv1S9U4UWUc1cpl-50" target="-r_XQkv1S9U4UWUc1cpl-50">
          <mxGeometry width="50" height="50" relative="1" as="geometry">
            <mxPoint x="110" y="792" as="sourcePoint" />
            <mxPoint x="160" y="742" as="targetPoint" />
            <Array as="points">
              <mxPoint x="160" y="792" />
              <mxPoint x="90" y="822" />
            </Array>
          </mxGeometry>
        </mxCell>
        <mxCell id="-r_XQkv1S9U4UWUc1cpl-68" value="saves the custom&lt;br&gt;jwt in local storage" style="text;html=1;align=center;verticalAlign=middle;resizable=0;points=[];autosize=1;strokeColor=none;fillColor=none;" vertex="1" parent="1">
          <mxGeometry y="782" width="120" height="40" as="geometry" />
        </mxCell>
        <mxCell id="-r_XQkv1S9U4UWUc1cpl-69" value="" style="endArrow=classic;html=1;rounded=0;entryX=0;entryY=0.25;entryDx=0;entryDy=0;exitX=1;exitY=0.25;exitDx=0;exitDy=0;" edge="1" parent="1" source="-r_XQkv1S9U4UWUc1cpl-56" target="-r_XQkv1S9U4UWUc1cpl-59">
          <mxGeometry width="50" height="50" relative="1" as="geometry">
            <mxPoint x="410" y="920" as="sourcePoint" />
            <mxPoint x="460" y="870" as="targetPoint" />
          </mxGeometry>
        </mxCell>
        <mxCell id="-r_XQkv1S9U4UWUc1cpl-70" value="" style="curved=1;endArrow=classic;html=1;rounded=0;exitX=0.75;exitY=0;exitDx=0;exitDy=0;entryX=1;entryY=0.5;entryDx=0;entryDy=0;" edge="1" parent="1" source="-r_XQkv1S9U4UWUc1cpl-59" target="-r_XQkv1S9U4UWUc1cpl-59">
          <mxGeometry width="50" height="50" relative="1" as="geometry">
            <mxPoint x="800" y="842" as="sourcePoint" />
            <mxPoint x="850" y="792" as="targetPoint" />
            <Array as="points">
              <mxPoint x="800" y="790" />
              <mxPoint x="810" y="850" />
            </Array>
          </mxGeometry>
        </mxCell>
        <mxCell id="-r_XQkv1S9U4UWUc1cpl-71" value="validates&lt;br&gt;the token" style="text;html=1;align=center;verticalAlign=middle;resizable=0;points=[];autosize=1;strokeColor=none;fillColor=none;" vertex="1" parent="1">
          <mxGeometry x="765" y="763" width="70" height="40" as="geometry" />
        </mxCell>
        <mxCell id="-r_XQkv1S9U4UWUc1cpl-72" value="" style="endArrow=classic;html=1;rounded=0;entryX=1;entryY=0.75;entryDx=0;entryDy=0;exitX=0;exitY=0.75;exitDx=0;exitDy=0;" edge="1" parent="1" source="-r_XQkv1S9U4UWUc1cpl-59" target="-r_XQkv1S9U4UWUc1cpl-56">
          <mxGeometry width="50" height="50" relative="1" as="geometry">
            <mxPoint x="590" y="917" as="sourcePoint" />
            <mxPoint x="640" y="867" as="targetPoint" />
          </mxGeometry>
        </mxCell>
        <mxCell id="-r_XQkv1S9U4UWUc1cpl-73" value="returns the user data" style="text;html=1;align=center;verticalAlign=middle;resizable=0;points=[];autosize=1;strokeColor=none;fillColor=none;" vertex="1" parent="1">
          <mxGeometry x="515" y="872" width="130" height="30" as="geometry" />
        </mxCell>
        <mxCell id="-r_XQkv1S9U4UWUc1cpl-75" value="(this is automatically done by spring)" style="text;html=1;strokeColor=none;fillColor=none;align=center;verticalAlign=middle;whiteSpace=wrap;rounded=0;" vertex="1" parent="1">
          <mxGeometry x="520" y="316" width="120" height="32" as="geometry" />
        </mxCell>
        <mxCell id="-r_XQkv1S9U4UWUc1cpl-80" value="clicks on &lt;br&gt;login button" style="text;html=1;align=center;verticalAlign=middle;resizable=0;points=[];autosize=1;strokeColor=none;fillColor=none;" vertex="1" parent="1">
          <mxGeometry x="40" y="98" width="90" height="40" as="geometry" />
        </mxCell>
        <mxCell id="-r_XQkv1S9U4UWUc1cpl-81" value="clicks on &lt;br&gt;login button" style="text;html=1;align=center;verticalAlign=middle;resizable=0;points=[];autosize=1;strokeColor=none;fillColor=none;" vertex="1" parent="1">
          <mxGeometry x="50" y="640" width="90" height="40" as="geometry" />
        </mxCell>
      </root>
    </mxGraphModel>
  </diagram>
</mxfile>
